<mxfile host="app.diagrams.net" agent="Mozilla/5.0 (Windows NT 10.0; Win64; x64) AppleWebKit/537.36 (KHTML, like Gecko) Chrome/87.0.4280.141 Safari/537.36" version="26.2.13" pages="2">
  <diagram name="Page-1" id="wDYI_LZaEmIbBq8KhgT1">
    <mxGraphModel dx="2918" dy="2282" grid="1" gridSize="10" guides="1" tooltips="1" connect="1" arrows="1" fold="1" page="1" pageScale="1" pageWidth="1169" pageHeight="827" math="0" shadow="0">
      <root>
        <mxCell id="0" />
        <mxCell id="1" parent="0" />
        <mxCell id="naQEdajJOQ9gjnrIb-qq-3" style="edgeStyle=orthogonalEdgeStyle;rounded=0;orthogonalLoop=1;jettySize=auto;html=1;entryX=0;entryY=0.5;entryDx=0;entryDy=0;" edge="1" parent="1" source="naQEdajJOQ9gjnrIb-qq-1" target="naQEdajJOQ9gjnrIb-qq-2">
          <mxGeometry relative="1" as="geometry" />
        </mxCell>
        <mxCell id="naQEdajJOQ9gjnrIb-qq-5" style="edgeStyle=orthogonalEdgeStyle;rounded=0;orthogonalLoop=1;jettySize=auto;html=1;" edge="1" parent="1" source="naQEdajJOQ9gjnrIb-qq-1" target="naQEdajJOQ9gjnrIb-qq-4">
          <mxGeometry relative="1" as="geometry">
            <Array as="points">
              <mxPoint x="630" y="360" />
            </Array>
          </mxGeometry>
        </mxCell>
        <mxCell id="naQEdajJOQ9gjnrIb-qq-7" style="edgeStyle=orthogonalEdgeStyle;rounded=0;orthogonalLoop=1;jettySize=auto;html=1;entryX=0.5;entryY=1;entryDx=0;entryDy=0;" edge="1" parent="1" source="naQEdajJOQ9gjnrIb-qq-1" target="naQEdajJOQ9gjnrIb-qq-6">
          <mxGeometry relative="1" as="geometry">
            <Array as="points">
              <mxPoint x="370" y="230" />
            </Array>
          </mxGeometry>
        </mxCell>
        <mxCell id="naQEdajJOQ9gjnrIb-qq-9" style="edgeStyle=orthogonalEdgeStyle;rounded=0;orthogonalLoop=1;jettySize=auto;html=1;entryX=0.5;entryY=0;entryDx=0;entryDy=0;" edge="1" parent="1" source="naQEdajJOQ9gjnrIb-qq-1" target="naQEdajJOQ9gjnrIb-qq-8">
          <mxGeometry relative="1" as="geometry">
            <Array as="points">
              <mxPoint x="550" y="325" />
              <mxPoint x="510" y="325" />
            </Array>
          </mxGeometry>
        </mxCell>
        <mxCell id="naQEdajJOQ9gjnrIb-qq-63" style="edgeStyle=orthogonalEdgeStyle;rounded=0;orthogonalLoop=1;jettySize=auto;html=1;" edge="1" parent="1" source="naQEdajJOQ9gjnrIb-qq-1" target="naQEdajJOQ9gjnrIb-qq-10">
          <mxGeometry relative="1" as="geometry">
            <Array as="points">
              <mxPoint x="580" y="170" />
              <mxPoint x="580" y="170" />
            </Array>
          </mxGeometry>
        </mxCell>
        <mxCell id="naQEdajJOQ9gjnrIb-qq-1" value="Cybersecurity" style="ellipse;whiteSpace=wrap;html=1;" vertex="1" parent="1">
          <mxGeometry x="525" y="190" width="120" height="80" as="geometry" />
        </mxCell>
        <mxCell id="naQEdajJOQ9gjnrIb-qq-20" style="edgeStyle=orthogonalEdgeStyle;rounded=0;orthogonalLoop=1;jettySize=auto;html=1;entryX=0;entryY=1;entryDx=0;entryDy=0;" edge="1" parent="1" source="naQEdajJOQ9gjnrIb-qq-2" target="naQEdajJOQ9gjnrIb-qq-13">
          <mxGeometry relative="1" as="geometry">
            <Array as="points">
              <mxPoint x="850" y="70" />
              <mxPoint x="990" y="70" />
              <mxPoint x="990" y="-12" />
            </Array>
          </mxGeometry>
        </mxCell>
        <mxCell id="naQEdajJOQ9gjnrIb-qq-21" style="edgeStyle=orthogonalEdgeStyle;rounded=0;orthogonalLoop=1;jettySize=auto;html=1;entryX=0.5;entryY=1;entryDx=0;entryDy=0;" edge="1" parent="1" source="naQEdajJOQ9gjnrIb-qq-2" target="naQEdajJOQ9gjnrIb-qq-12">
          <mxGeometry relative="1" as="geometry" />
        </mxCell>
        <mxCell id="naQEdajJOQ9gjnrIb-qq-2" value="Threat Intelligence" style="ellipse;whiteSpace=wrap;html=1;" vertex="1" parent="1">
          <mxGeometry x="762" y="80" width="120" height="80" as="geometry" />
        </mxCell>
        <mxCell id="naQEdajJOQ9gjnrIb-qq-29" style="edgeStyle=orthogonalEdgeStyle;rounded=0;orthogonalLoop=1;jettySize=auto;html=1;exitX=1;exitY=1;exitDx=0;exitDy=0;" edge="1" parent="1" source="naQEdajJOQ9gjnrIb-qq-4" target="naQEdajJOQ9gjnrIb-qq-25">
          <mxGeometry relative="1" as="geometry">
            <Array as="points">
              <mxPoint x="802" y="400" />
              <mxPoint x="880" y="400" />
              <mxPoint x="880" y="680" />
            </Array>
          </mxGeometry>
        </mxCell>
        <mxCell id="naQEdajJOQ9gjnrIb-qq-30" style="edgeStyle=orthogonalEdgeStyle;rounded=0;orthogonalLoop=1;jettySize=auto;html=1;entryX=0;entryY=0.5;entryDx=0;entryDy=0;" edge="1" parent="1" target="naQEdajJOQ9gjnrIb-qq-24">
          <mxGeometry relative="1" as="geometry">
            <mxPoint x="751.9615242270663" y="380" as="sourcePoint" />
            <mxPoint x="929" y="570" as="targetPoint" />
            <Array as="points">
              <mxPoint x="929" y="380" />
            </Array>
          </mxGeometry>
        </mxCell>
        <mxCell id="naQEdajJOQ9gjnrIb-qq-31" style="edgeStyle=orthogonalEdgeStyle;rounded=0;orthogonalLoop=1;jettySize=auto;html=1;" edge="1" parent="1" source="naQEdajJOQ9gjnrIb-qq-4" target="naQEdajJOQ9gjnrIb-qq-26">
          <mxGeometry relative="1" as="geometry">
            <Array as="points">
              <mxPoint x="1000" y="350" />
              <mxPoint x="1000" y="430" />
            </Array>
          </mxGeometry>
        </mxCell>
        <mxCell id="naQEdajJOQ9gjnrIb-qq-32" style="edgeStyle=orthogonalEdgeStyle;rounded=0;orthogonalLoop=1;jettySize=auto;html=1;entryX=0;entryY=0.5;entryDx=0;entryDy=0;" edge="1" parent="1" source="naQEdajJOQ9gjnrIb-qq-4" target="naQEdajJOQ9gjnrIb-qq-23">
          <mxGeometry relative="1" as="geometry">
            <Array as="points">
              <mxPoint x="960" y="360" />
              <mxPoint x="960" y="520" />
            </Array>
          </mxGeometry>
        </mxCell>
        <mxCell id="naQEdajJOQ9gjnrIb-qq-4" value="Incident Response" style="ellipse;whiteSpace=wrap;html=1;" vertex="1" parent="1">
          <mxGeometry x="700" y="320" width="120" height="80" as="geometry" />
        </mxCell>
        <mxCell id="naQEdajJOQ9gjnrIb-qq-38" style="rounded=0;orthogonalLoop=1;jettySize=auto;html=1;entryX=1;entryY=1;entryDx=0;entryDy=0;dashed=1;" edge="1" parent="1" source="naQEdajJOQ9gjnrIb-qq-6" target="naQEdajJOQ9gjnrIb-qq-34">
          <mxGeometry relative="1" as="geometry" />
        </mxCell>
        <mxCell id="naQEdajJOQ9gjnrIb-qq-39" style="edgeStyle=orthogonalEdgeStyle;rounded=0;orthogonalLoop=1;jettySize=auto;html=1;entryX=1;entryY=0.5;entryDx=0;entryDy=0;dashed=1;" edge="1" parent="1" source="naQEdajJOQ9gjnrIb-qq-6" target="naQEdajJOQ9gjnrIb-qq-35">
          <mxGeometry relative="1" as="geometry">
            <Array as="points">
              <mxPoint x="285" y="90" />
              <mxPoint x="285" y="40" />
            </Array>
          </mxGeometry>
        </mxCell>
        <mxCell id="naQEdajJOQ9gjnrIb-qq-40" style="edgeStyle=orthogonalEdgeStyle;rounded=0;orthogonalLoop=1;jettySize=auto;html=1;entryX=1.006;entryY=0.5;entryDx=0;entryDy=0;dashed=1;entryPerimeter=0;" edge="1" parent="1" source="naQEdajJOQ9gjnrIb-qq-6" target="naQEdajJOQ9gjnrIb-qq-36">
          <mxGeometry relative="1" as="geometry">
            <mxPoint x="220" y="140" as="targetPoint" />
            <Array as="points">
              <mxPoint x="265" y="110" />
              <mxPoint x="265" y="140" />
            </Array>
          </mxGeometry>
        </mxCell>
        <mxCell id="naQEdajJOQ9gjnrIb-qq-41" style="edgeStyle=orthogonalEdgeStyle;rounded=0;orthogonalLoop=1;jettySize=auto;html=1;entryX=1;entryY=0.5;entryDx=0;entryDy=0;dashed=1;" edge="1" parent="1" source="naQEdajJOQ9gjnrIb-qq-6" target="naQEdajJOQ9gjnrIb-qq-37">
          <mxGeometry relative="1" as="geometry">
            <Array as="points">
              <mxPoint x="280" y="140" />
              <mxPoint x="280" y="260" />
            </Array>
          </mxGeometry>
        </mxCell>
        <mxCell id="naQEdajJOQ9gjnrIb-qq-6" value="Compliance &amp;amp; Regulations" style="ellipse;whiteSpace=wrap;html=1;" vertex="1" parent="1">
          <mxGeometry x="310" y="80" width="120" height="80" as="geometry" />
        </mxCell>
        <mxCell id="naQEdajJOQ9gjnrIb-qq-47" style="edgeStyle=orthogonalEdgeStyle;rounded=0;orthogonalLoop=1;jettySize=auto;html=1;" edge="1" parent="1" source="naQEdajJOQ9gjnrIb-qq-8" target="naQEdajJOQ9gjnrIb-qq-42">
          <mxGeometry relative="1" as="geometry">
            <Array as="points">
              <mxPoint x="340" y="410" />
            </Array>
          </mxGeometry>
        </mxCell>
        <mxCell id="naQEdajJOQ9gjnrIb-qq-49" style="edgeStyle=orthogonalEdgeStyle;rounded=0;orthogonalLoop=1;jettySize=auto;html=1;entryX=0.5;entryY=0;entryDx=0;entryDy=0;exitX=0.068;exitY=0.787;exitDx=0;exitDy=0;exitPerimeter=0;" edge="1" parent="1" source="naQEdajJOQ9gjnrIb-qq-8" target="naQEdajJOQ9gjnrIb-qq-44">
          <mxGeometry relative="1" as="geometry">
            <Array as="points">
              <mxPoint x="458" y="560" />
              <mxPoint x="340" y="560" />
            </Array>
          </mxGeometry>
        </mxCell>
        <mxCell id="naQEdajJOQ9gjnrIb-qq-51" style="edgeStyle=orthogonalEdgeStyle;rounded=0;orthogonalLoop=1;jettySize=auto;html=1;" edge="1" parent="1" source="naQEdajJOQ9gjnrIb-qq-8" target="naQEdajJOQ9gjnrIb-qq-46">
          <mxGeometry relative="1" as="geometry" />
        </mxCell>
        <mxCell id="naQEdajJOQ9gjnrIb-qq-8" value="Security Controls &amp;amp; Policies&amp;nbsp;" style="ellipse;whiteSpace=wrap;html=1;" vertex="1" parent="1">
          <mxGeometry x="450" y="380" width="120" height="80" as="geometry" />
        </mxCell>
        <mxCell id="naQEdajJOQ9gjnrIb-qq-58" style="edgeStyle=orthogonalEdgeStyle;rounded=0;orthogonalLoop=1;jettySize=auto;html=1;" edge="1" parent="1" source="naQEdajJOQ9gjnrIb-qq-10" target="naQEdajJOQ9gjnrIb-qq-57">
          <mxGeometry relative="1" as="geometry">
            <Array as="points">
              <mxPoint x="610" y="-10" />
              <mxPoint x="700" y="-10" />
            </Array>
          </mxGeometry>
        </mxCell>
        <mxCell id="naQEdajJOQ9gjnrIb-qq-59" style="edgeStyle=orthogonalEdgeStyle;rounded=0;orthogonalLoop=1;jettySize=auto;html=1;" edge="1" parent="1" source="naQEdajJOQ9gjnrIb-qq-10" target="naQEdajJOQ9gjnrIb-qq-56">
          <mxGeometry relative="1" as="geometry">
            <Array as="points">
              <mxPoint x="530" y="-25" />
              <mxPoint x="520" y="-25" />
            </Array>
          </mxGeometry>
        </mxCell>
        <mxCell id="naQEdajJOQ9gjnrIb-qq-60" style="edgeStyle=orthogonalEdgeStyle;rounded=0;orthogonalLoop=1;jettySize=auto;html=1;entryX=0.904;entryY=0.821;entryDx=0;entryDy=0;entryPerimeter=0;" edge="1" parent="1">
          <mxGeometry relative="1" as="geometry">
            <mxPoint x="512" y="64.32" as="sourcePoint" />
            <mxPoint x="430.4799999999999" y="-170.00000000000006" as="targetPoint" />
            <Array as="points">
              <mxPoint x="432" y="64" />
              <mxPoint x="432" y="-160" />
              <mxPoint x="430" y="-160" />
              <mxPoint x="430" y="-170" />
            </Array>
          </mxGeometry>
        </mxCell>
        <mxCell id="naQEdajJOQ9gjnrIb-qq-61" style="edgeStyle=orthogonalEdgeStyle;rounded=0;orthogonalLoop=1;jettySize=auto;html=1;entryX=0.5;entryY=1;entryDx=0;entryDy=0;" edge="1" parent="1" source="naQEdajJOQ9gjnrIb-qq-10" target="naQEdajJOQ9gjnrIb-qq-54">
          <mxGeometry relative="1" as="geometry" />
        </mxCell>
        <mxCell id="naQEdajJOQ9gjnrIb-qq-62" style="edgeStyle=orthogonalEdgeStyle;rounded=0;orthogonalLoop=1;jettySize=auto;html=1;" edge="1" parent="1" source="naQEdajJOQ9gjnrIb-qq-10" target="naQEdajJOQ9gjnrIb-qq-53">
          <mxGeometry relative="1" as="geometry">
            <Array as="points">
              <mxPoint x="790" y="40" />
            </Array>
          </mxGeometry>
        </mxCell>
        <mxCell id="naQEdajJOQ9gjnrIb-qq-10" value="Education &amp;amp; Awareness&amp;nbsp;" style="ellipse;whiteSpace=wrap;html=1;" vertex="1" parent="1">
          <mxGeometry x="520" y="20" width="120" height="80" as="geometry" />
        </mxCell>
        <mxCell id="naQEdajJOQ9gjnrIb-qq-12" value="Malware&amp;nbsp;" style="ellipse;whiteSpace=wrap;html=1;" vertex="1" parent="1">
          <mxGeometry x="870" y="-100" width="120" height="80" as="geometry" />
        </mxCell>
        <mxCell id="naQEdajJOQ9gjnrIb-qq-13" value="Phishing&amp;nbsp;" style="ellipse;whiteSpace=wrap;html=1;" vertex="1" parent="1">
          <mxGeometry x="1060" y="-50" width="120" height="80" as="geometry" />
        </mxCell>
        <mxCell id="naQEdajJOQ9gjnrIb-qq-14" value="Indicators&amp;nbsp;" style="ellipse;whiteSpace=wrap;html=1;" vertex="1" parent="1">
          <mxGeometry x="1110" y="70" width="120" height="80" as="geometry" />
        </mxCell>
        <mxCell id="naQEdajJOQ9gjnrIb-qq-15" value="Threat Actors" style="ellipse;whiteSpace=wrap;html=1;" vertex="1" parent="1">
          <mxGeometry x="1000" y="180" width="120" height="80" as="geometry" />
        </mxCell>
        <mxCell id="naQEdajJOQ9gjnrIb-qq-16" value="Tactics/Techniques/&lt;div&gt;Procedure&lt;/div&gt;" style="ellipse;whiteSpace=wrap;html=1;" vertex="1" parent="1">
          <mxGeometry x="850" y="190" width="120" height="80" as="geometry" />
        </mxCell>
        <mxCell id="naQEdajJOQ9gjnrIb-qq-17" style="edgeStyle=orthogonalEdgeStyle;rounded=0;orthogonalLoop=1;jettySize=auto;html=1;entryX=0.014;entryY=0.491;entryDx=0;entryDy=0;entryPerimeter=0;" edge="1" parent="1" source="naQEdajJOQ9gjnrIb-qq-2" target="naQEdajJOQ9gjnrIb-qq-16">
          <mxGeometry relative="1" as="geometry">
            <mxPoint x="783.44" y="190.0028499928493" as="sourcePoint" />
            <mxPoint x="900" y="245.39999999999998" as="targetPoint" />
            <Array as="points">
              <mxPoint x="820" y="230" />
              <mxPoint x="849" y="230" />
            </Array>
          </mxGeometry>
        </mxCell>
        <mxCell id="naQEdajJOQ9gjnrIb-qq-18" style="edgeStyle=orthogonalEdgeStyle;rounded=0;orthogonalLoop=1;jettySize=auto;html=1;" edge="1" parent="1" source="naQEdajJOQ9gjnrIb-qq-2" target="naQEdajJOQ9gjnrIb-qq-15">
          <mxGeometry relative="1" as="geometry">
            <Array as="points">
              <mxPoint x="1052" y="140" />
            </Array>
          </mxGeometry>
        </mxCell>
        <mxCell id="naQEdajJOQ9gjnrIb-qq-19" style="edgeStyle=orthogonalEdgeStyle;rounded=0;orthogonalLoop=1;jettySize=auto;html=1;entryX=0;entryY=0.625;entryDx=0;entryDy=0;entryPerimeter=0;" edge="1" parent="1" source="naQEdajJOQ9gjnrIb-qq-2" target="naQEdajJOQ9gjnrIb-qq-14">
          <mxGeometry relative="1" as="geometry">
            <Array as="points">
              <mxPoint x="1100" y="120" />
            </Array>
          </mxGeometry>
        </mxCell>
        <mxCell id="naQEdajJOQ9gjnrIb-qq-22" value="Preparation&amp;nbsp;" style="ellipse;whiteSpace=wrap;html=1;" vertex="1" parent="1">
          <mxGeometry x="1070" y="290" width="120" height="80" as="geometry" />
        </mxCell>
        <mxCell id="naQEdajJOQ9gjnrIb-qq-23" value="Containment&amp;nbsp;" style="ellipse;whiteSpace=wrap;html=1;" vertex="1" parent="1">
          <mxGeometry x="1060" y="480" width="120" height="80" as="geometry" />
        </mxCell>
        <mxCell id="naQEdajJOQ9gjnrIb-qq-24" value="Eradication&amp;nbsp;" style="ellipse;whiteSpace=wrap;html=1;" vertex="1" parent="1">
          <mxGeometry x="1040" y="570" width="120" height="80" as="geometry" />
        </mxCell>
        <mxCell id="naQEdajJOQ9gjnrIb-qq-25" value="Recovery&amp;nbsp;" style="ellipse;whiteSpace=wrap;html=1;" vertex="1" parent="1">
          <mxGeometry x="910" y="640" width="120" height="80" as="geometry" />
        </mxCell>
        <mxCell id="naQEdajJOQ9gjnrIb-qq-26" value="Detection &amp;amp; Analysis&amp;nbsp;" style="ellipse;whiteSpace=wrap;html=1;" vertex="1" parent="1">
          <mxGeometry x="1070" y="390" width="120" height="80" as="geometry" />
        </mxCell>
        <mxCell id="naQEdajJOQ9gjnrIb-qq-27" value="Post-Incident Activitie" style="ellipse;whiteSpace=wrap;html=1;" vertex="1" parent="1">
          <mxGeometry x="750" y="440" width="120" height="80" as="geometry" />
        </mxCell>
        <mxCell id="naQEdajJOQ9gjnrIb-qq-28" style="edgeStyle=orthogonalEdgeStyle;rounded=0;orthogonalLoop=1;jettySize=auto;html=1;entryX=0.015;entryY=0.58;entryDx=0;entryDy=0;entryPerimeter=0;exitX=0.177;exitY=0.877;exitDx=0;exitDy=0;exitPerimeter=0;" edge="1" parent="1" source="naQEdajJOQ9gjnrIb-qq-4" target="naQEdajJOQ9gjnrIb-qq-27">
          <mxGeometry relative="1" as="geometry">
            <Array as="points">
              <mxPoint x="718" y="390" />
              <mxPoint x="718" y="400" />
              <mxPoint x="720" y="400" />
              <mxPoint x="720" y="486" />
            </Array>
          </mxGeometry>
        </mxCell>
        <mxCell id="naQEdajJOQ9gjnrIb-qq-33" style="edgeStyle=orthogonalEdgeStyle;rounded=0;orthogonalLoop=1;jettySize=auto;html=1;" edge="1" parent="1" source="naQEdajJOQ9gjnrIb-qq-4" target="naQEdajJOQ9gjnrIb-qq-22">
          <mxGeometry relative="1" as="geometry">
            <Array as="points">
              <mxPoint x="880" y="330" />
              <mxPoint x="880" y="330" />
            </Array>
          </mxGeometry>
        </mxCell>
        <mxCell id="naQEdajJOQ9gjnrIb-qq-34" value="ISO 27001" style="ellipse;whiteSpace=wrap;html=1;" vertex="1" parent="1">
          <mxGeometry x="220" y="-110" width="120" height="80" as="geometry" />
        </mxCell>
        <mxCell id="naQEdajJOQ9gjnrIb-qq-35" value="NIST Frameworks" style="ellipse;whiteSpace=wrap;html=1;" vertex="1" parent="1">
          <mxGeometry x="140" width="120" height="80" as="geometry" />
        </mxCell>
        <mxCell id="naQEdajJOQ9gjnrIb-qq-36" value="GDPR" style="ellipse;whiteSpace=wrap;html=1;" vertex="1" parent="1">
          <mxGeometry x="110" y="100" width="120" height="80" as="geometry" />
        </mxCell>
        <mxCell id="naQEdajJOQ9gjnrIb-qq-37" value="PCI-DSS" style="ellipse;whiteSpace=wrap;html=1;" vertex="1" parent="1">
          <mxGeometry x="130" y="220" width="120" height="80" as="geometry" />
        </mxCell>
        <mxCell id="naQEdajJOQ9gjnrIb-qq-42" value="Access Control" style="ellipse;whiteSpace=wrap;html=1;" vertex="1" parent="1">
          <mxGeometry x="280" y="290" width="120" height="80" as="geometry" />
        </mxCell>
        <mxCell id="naQEdajJOQ9gjnrIb-qq-44" value="Configuration Management" style="ellipse;whiteSpace=wrap;html=1;" vertex="1" parent="1">
          <mxGeometry x="280" y="580" width="120" height="80" as="geometry" />
        </mxCell>
        <mxCell id="naQEdajJOQ9gjnrIb-qq-45" value="Encryption" style="ellipse;whiteSpace=wrap;html=1;" vertex="1" parent="1">
          <mxGeometry x="450" y="580" width="120" height="80" as="geometry" />
        </mxCell>
        <mxCell id="naQEdajJOQ9gjnrIb-qq-46" value="Network Monitoring" style="ellipse;whiteSpace=wrap;html=1;" vertex="1" parent="1">
          <mxGeometry x="580" y="520" width="120" height="80" as="geometry" />
        </mxCell>
        <mxCell id="naQEdajJOQ9gjnrIb-qq-50" style="edgeStyle=orthogonalEdgeStyle;rounded=0;orthogonalLoop=1;jettySize=auto;html=1;entryX=0.785;entryY=0.108;entryDx=0;entryDy=0;entryPerimeter=0;" edge="1" parent="1" source="naQEdajJOQ9gjnrIb-qq-8" target="naQEdajJOQ9gjnrIb-qq-45">
          <mxGeometry relative="1" as="geometry" />
        </mxCell>
        <mxCell id="naQEdajJOQ9gjnrIb-qq-52" value="" style="edgeStyle=orthogonalEdgeStyle;rounded=0;orthogonalLoop=1;jettySize=auto;html=1;entryX=0.5;entryY=0;entryDx=0;entryDy=0;" edge="1" parent="1" source="naQEdajJOQ9gjnrIb-qq-8" target="naQEdajJOQ9gjnrIb-qq-43">
          <mxGeometry relative="1" as="geometry">
            <mxPoint x="450" y="420" as="sourcePoint" />
            <mxPoint x="340" y="550" as="targetPoint" />
            <Array as="points">
              <mxPoint x="250" y="440" />
            </Array>
          </mxGeometry>
        </mxCell>
        <mxCell id="naQEdajJOQ9gjnrIb-qq-43" value="Audit &amp;amp; Accountability" style="ellipse;whiteSpace=wrap;html=1;" vertex="1" parent="1">
          <mxGeometry x="190" y="460" width="120" height="80" as="geometry" />
        </mxCell>
        <mxCell id="naQEdajJOQ9gjnrIb-qq-53" value="Incident Drills" style="ellipse;whiteSpace=wrap;html=1;" vertex="1" parent="1">
          <mxGeometry x="730" y="-200" width="120" height="80" as="geometry" />
        </mxCell>
        <mxCell id="naQEdajJOQ9gjnrIb-qq-54" value="Password Hygiene" style="ellipse;whiteSpace=wrap;html=1;" vertex="1" parent="1">
          <mxGeometry x="560" y="-240" width="120" height="80" as="geometry" />
        </mxCell>
        <mxCell id="naQEdajJOQ9gjnrIb-qq-55" value="Phishing Simulation" style="ellipse;whiteSpace=wrap;html=1;" vertex="1" parent="1">
          <mxGeometry x="330" y="-240" width="120" height="80" as="geometry" />
        </mxCell>
        <mxCell id="naQEdajJOQ9gjnrIb-qq-56" value="Social Engineering Training" style="ellipse;whiteSpace=wrap;html=1;" vertex="1" parent="1">
          <mxGeometry x="460" y="-150" width="120" height="80" as="geometry" />
        </mxCell>
        <mxCell id="naQEdajJOQ9gjnrIb-qq-57" value="Secure Coding" style="ellipse;whiteSpace=wrap;html=1;" vertex="1" parent="1">
          <mxGeometry x="640" y="-120" width="120" height="80" as="geometry" />
        </mxCell>
        <mxCell id="Kl9krcQL2L1GxrvgcntE-3" value="" style="endArrow=classic;html=1;rounded=0;" edge="1" parent="1">
          <mxGeometry width="50" height="50" relative="1" as="geometry">
            <mxPoint x="10" y="679.83" as="sourcePoint" />
            <mxPoint x="90" y="679.83" as="targetPoint" />
          </mxGeometry>
        </mxCell>
        <mxCell id="Kl9krcQL2L1GxrvgcntE-4" value="SubClass" style="text;html=1;align=center;verticalAlign=middle;resizable=0;points=[];autosize=1;strokeColor=none;fillColor=none;" vertex="1" parent="1">
          <mxGeometry x="85" y="664" width="70" height="30" as="geometry" />
        </mxCell>
        <mxCell id="Kl9krcQL2L1GxrvgcntE-5" value="" style="edgeStyle=orthogonalEdgeStyle;rounded=0;orthogonalLoop=1;jettySize=auto;html=1;entryX=1;entryY=1;entryDx=0;entryDy=0;dashed=1;" edge="1" parent="1">
          <mxGeometry width="50" height="50" relative="1" as="geometry">
            <mxPoint x="10" y="720" as="sourcePoint" />
            <mxPoint x="90" y="719.9958620689656" as="targetPoint" />
          </mxGeometry>
        </mxCell>
        <mxCell id="Kl9krcQL2L1GxrvgcntE-6" value="Instance" style="text;html=1;align=center;verticalAlign=middle;resizable=0;points=[];autosize=1;strokeColor=none;fillColor=none;" vertex="1" parent="1">
          <mxGeometry x="90" y="703" width="70" height="30" as="geometry" />
        </mxCell>
        <mxCell id="Kl9krcQL2L1GxrvgcntE-7" value="" style="swimlane;startSize=0;" vertex="1" parent="1">
          <mxGeometry y="662" width="160" height="90" as="geometry" />
        </mxCell>
      </root>
    </mxGraphModel>
  </diagram>
  <diagram id="Uh8jpfyoB1ZtVZFSZXFz" name="Page-2">
    <mxGraphModel dx="1167" dy="582" grid="1" gridSize="10" guides="1" tooltips="1" connect="1" arrows="1" fold="1" page="1" pageScale="1" pageWidth="1169" pageHeight="827" math="0" shadow="0">
      <root>
        <mxCell id="0" />
        <mxCell id="1" parent="0" />
      </root>
    </mxGraphModel>
  </diagram>
</mxfile>
